<?xml version="1.0" encoding="utf-8"?>
<!-- Generator: Adobe Illustrator 19.0.0, SVG Export Plug-In . SVG Version: 6.00 Build 0)  -->
<svg version="1.1" id="Слой_1" xmlns="http://www.w3.org/2000/svg" xmlns:xlink="http://www.w3.org/1999/xlink" x="0px" y="0px"
	 viewBox="0 0 114.6 14.3" style="enable-background:new 0 0 114.6 14.3;" xml:space="preserve">
<style type="text/css">
	.st0{fill:#010101;}
</style>
<path id="XMLID_2_" class="st0" d="M114.6,3c-3.1,0-4.6,2.1-6.3,4.6c-1.8,2.5-3.9,5.4-8,5.4s-6.2-2.9-8-5.4C90.6,5.1,89,3,86,3
	c-3.1,0-4.6,2.1-6.4,4.6c-1.8,2.5-3.9,5.4-8,5.4s-6.2-2.9-8-5.4C61.9,5.1,60.4,3,57.3,3c-3.1,0-4.6,2.1-6.4,4.6
	c-1.8,2.5-3.9,5.4-8,5.4c-4.1,0-6.2-2.9-8-5.4C33.3,5.1,31.7,3,28.7,3c-3.1,0-4.6,2.1-6.4,4.6c-1.8,2.5-3.9,5.4-8,5.4
	c-4.1,0-6.2-2.9-8-5.4C4.6,5.1,3.1,3,0,3V1c4.1,0,6.2,2.9,8,5.4c1.8,2.5,3.3,4.6,6.4,4.6s4.6-2.1,6.4-4.6c1.8-2.5,3.9-5.4,8-5.4
	c4.1,0,6.2,2.9,8,5.4C38.4,8.9,39.9,11,43,11c3.1,0,4.6-2.1,6.4-4.6c1.8-2.5,3.9-5.4,8-5.4c4.1,0,6.2,2.9,8,5.4
	c1.8,2.5,3.3,4.6,6.4,4.6s4.6-2.1,6.4-4.6C79.8,3.9,81.9,1,86,1s6.2,2.9,8,5.4c1.8,2.5,3.3,4.6,6.4,4.6s4.6-2.1,6.3-4.6
	c1.8-2.5,3.9-5.4,8-5.4"/>
</svg>
